<svg width="24" height="24" viewBox="0 0 24 24" fill="none" xmlns="http://www.w3.org/2000/svg">
<rect width="24" height="24" fill="white"/>
<path d="M7 6C6.44771 6 6 6.44772 6 7V15C6 15.5523 6.44772 16 7 16H8.5C8.77614 16 9 15.7761 9 15.5C9 15.2239 8.77614 15 8.5 15H7V7L18 7V15H16.5C16.2239 15 16 15.2239 16 15.5C16 15.7761 16.2239 16 16.5 16H18C18.5523 16 19 15.5523 19 15V7C19 6.44771 18.5523 6 18 6H7Z" />
<path d="M12.8537 13.8535C12.6584 13.6583 12.3418 13.6583 12.1466 13.8535L8.35358 17.6464C8.03859 17.9614 8.26167 18.5 8.70713 18.5H16.2931C16.7386 18.5 16.9617 17.9614 16.6467 17.6464L12.8537 13.8535Z" />
</svg>
