<svg width="24" height="24" viewBox="0 0 24 24" fill="none" xmlns="http://www.w3.org/2000/svg">

<path d="M15.9834 4.49989C17.4251 2.88008 17.2045 0.634167 17.2045 0.634167C17.2045 0.634167 14.5908 0.921019 13.1491 2.54082C11.7074 4.16063 11.9837 6.5 11.9837 6.5C11.9837 6.5 14.5418 6.11969 15.9834 4.49989Z" fill="#0F0F0F"/>
<path d="M16 13.3506C16 11.4085 17.3841 9.78968 19.2196 9.42668C18.2679 7.44231 16.2289 6.32798 12.0002 8.20991C5.00024 5.09465 4 10.1897 4 13.8506C4 17.5115 8 25.3506 12.0002 21.4671C14.9579 24.3388 17.9157 20.8005 19.2562 17.2816C17.4025 16.933 16 15.3056 16 13.3506Z" fill="#0F0F0F"/>
</svg>
