<svg width="24" height="24" viewBox="0 0 24 24" fill="none" xmlns="http://www.w3.org/2000/svg">

<path d="M7 8.5C7 8.22386 7.22386 8 7.5 8L17.5 8.00005C17.7761 8.00005 18 8.22391 18 8.50005V15.5001C18 15.7762 17.7761 16.0001 17.5 16.0001H13.5C13.2239 16.0001 13 16.2239 13 16.5001C13 16.7762 13.2239 17.0001 13.5 17.0001H17.5C18.3284 17.0001 19 16.3285 19 15.5001V8.50005C19 7.67162 18.3284 7.00005 17.5 7.00005L7.50001 7C6.67158 7 6 7.67157 6 8.5V9.5C6 9.77614 6.22386 10 6.5 10C6.77614 10 7 9.77614 7 9.5V8.5Z" />
<path d="M10.4551 15.9022C10.5046 16.2299 10.2314 16.5 9.9 16.5C9.56863 16.5 9.30643 16.2284 9.23596 15.9046C9.20061 15.7421 9.15078 15.5828 9.08686 15.4285C8.94615 15.0888 8.7399 14.7801 8.4799 14.5201C8.21989 14.2601 7.91123 14.0538 7.57151 13.9131C7.4172 13.8492 7.25785 13.7994 7.09542 13.764C6.77163 13.6936 6.5 13.4314 6.5 13.1C6.5 12.7686 6.77011 12.4954 7.09776 12.5449C7.41739 12.5932 7.73072 12.6802 8.03073 12.8045C8.51604 13.0055 8.95699 13.3001 9.32843 13.6716C9.69986 14.043 9.9945 14.484 10.1955 14.9693C10.3198 15.2693 10.4068 15.5826 10.4551 15.9022Z" />
<path d="M8.5 16.5C8.5 16.2374 8.44827 15.9773 8.34776 15.7346C8.24725 15.492 8.09993 15.2715 7.91421 15.0858C7.7285 14.9001 7.50802 14.7527 7.26537 14.6522C7.02272 14.5517 6.76264 14.5 6.5 14.5V16.5H8.5Z" />
<path d="M12.47 15.901C12.5031 16.2307 12.2314 16.5 11.9 16.5C11.5686 16.5 11.3039 16.2303 11.2625 15.9016C11.2092 15.4768 11.0991 15.0603 10.9346 14.6631C10.6934 14.0808 10.3398 13.5516 9.89411 13.1059C9.44839 12.6602 8.91924 12.3066 8.33688 12.0654C7.93974 11.9009 7.52316 11.7908 7.09844 11.7374C6.76966 11.6961 6.5 11.4314 6.5 11.1C6.5 10.7686 6.76929 10.4969 7.099 10.53C7.68145 10.5884 8.2533 10.7319 8.7961 10.9567C9.52405 11.2582 10.1855 11.7002 10.7426 12.2574C11.2998 12.8145 11.7417 13.4759 12.0433 14.2039C12.2681 14.7467 12.4116 15.3185 12.47 15.901Z" />
</svg>
