<svg width="24" height="24" viewBox="0 0 24 24" fill="none" xmlns="http://www.w3.org/2000/svg">

<path d="M16.5762 9.48014C16.8413 9.16193 16.7983 8.68901 16.4801 8.42383C16.1619 8.15866 15.689 8.20165 15.4238 8.51986L10.9496 13.8889L8.53033 11.4697C8.23744 11.1768 7.76256 11.1768 7.46967 11.4697C7.17678 11.7626 7.17678 12.2374 7.46967 12.5303L10.4697 15.5303C10.6187 15.6793 10.8235 15.7588 11.034 15.7492C11.2445 15.7397 11.4413 15.642 11.5762 15.4801L16.5762 9.48014Z" fill=""/>
<path fill-rule="evenodd" clip-rule="evenodd" d="M20 12C20 16.4183 16.4183 20 12 20C7.58172 20 4 16.4183 4 12C4 7.58172 7.58172 4 12 4C16.4183 4 20 7.58172 20 12ZM18.5 12C18.5 15.5899 15.5899 18.5 12 18.5C8.41015 18.5 5.5 15.5899 5.5 12C5.5 8.41015 8.41015 5.5 12 5.5C15.5899 5.5 18.5 8.41015 18.5 12Z" fill="" />
</svg>
