<svg width="24" height="24" viewBox="0 0 24 24" fill="none" xmlns="http://www.w3.org/2000/svg">

<path fill-rule="evenodd" clip-rule="evenodd" d="M13.3536 15.3536C13.1583 15.5488 12.8417 15.5488 12.6464 15.3536L9.64645 12.3536C9.45118 12.1583 9.45118 11.8417 9.64645 11.6464L12.6464 8.64645C12.8417 8.45118 13.1583 8.45118 13.3536 8.64645C13.5488 8.84171 13.5488 9.15829 13.3536 9.35355L10.7071 12L13.3536 14.6464C13.5488 14.8417 13.5488 15.1583 13.3536 15.3536ZM12 5C8.13401 5 5 8.13401 5 12C5 15.866 8.13401 19 12 19C15.866 19 19 15.866 19 12C19 8.13401 15.866 5 12 5ZM12 4C7.58172 4 4 7.58172 4 12C4 16.4183 7.58172 20 12 20C16.4183 20 20 16.4183 20 12C20 7.58172 16.4183 4 12 4Z" fill=""/>
</svg>
