<svg width="64" height="64" viewBox="0 0 44 44" fill="none" xmlns="http://www.w3.org/2000/svg">
<circle cx="22" cy="21.9999" r="14.6667" fill="#303030"/>
<path fill-rule="evenodd" clip-rule="evenodd" d="M24.4815 28.1483C24.1235 28.5062 23.5431 28.5062 23.1852 28.1483L17.6852 22.6483C17.3272 22.2903 17.3272 21.7099 17.6852 21.3519L23.1852 15.8519C23.5431 15.4939 24.1235 15.4939 24.4815 15.8519C24.8395 16.2099 24.8395 16.7903 24.4815 17.1483L19.6297 22.0001L24.4815 26.8519C24.8395 27.2099 24.8395 27.7903 24.4815 28.1483ZM22 9.16675C14.9123 9.16675 9.16667 14.9124 9.16667 22.0001C9.16667 29.0877 14.9123 34.8334 22 34.8334C29.0877 34.8334 34.8333 29.0877 34.8333 22.0001C34.8333 14.9124 29.0877 9.16675 22 9.16675ZM22 7.33341C13.8998 7.33341 7.33334 13.8999 7.33334 22.0001C7.33334 30.1003 13.8998 36.6667 22 36.6667C30.1002 36.6667 36.6667 30.1003 36.6667 22.0001C36.6667 13.8999 30.1002 7.33341 22 7.33341Z" fill="#FF832A"/>
</svg>
