<svg width="150" height="44" viewBox="0 0 150 44" fill="none" xmlns="http://www.w3.org/2000/svg">
<path fill-rule="evenodd" clip-rule="evenodd" d="M45.0116 31.1088C44.9247 31.0706 44.8163 31.0191 44.6855 30.9514C44.2453 30.7236 43.6591 30.3696 42.9664 29.8978C41.5854 28.9574 39.8835 27.6193 38.2328 26.0714C36.5771 24.5188 35.0214 22.8003 33.8929 21.105C32.7399 19.3728 32.1662 17.8632 32.1662 16.6835C32.1662 12.6334 35.4495 9.35018 39.4996 9.35018C41.1526 9.35018 42.673 9.8949 43.8985 10.8154C44.5508 11.3053 45.4483 11.3053 46.1006 10.8154C47.3261 9.8949 48.8466 9.35018 50.4996 9.35018C54.5497 9.35018 57.8329 12.6334 57.8329 16.6835C57.8329 18.0068 57.2403 19.5859 56.1005 21.3195C54.9773 23.0278 53.4288 24.7249 51.7791 26.2425C50.1344 27.7556 48.4376 29.0461 47.0602 29.9481C46.3696 30.4004 45.7842 30.7386 45.3443 30.9559C45.2108 31.0218 45.1002 31.0719 45.0116 31.1088ZM44.8074 31.1839C44.7995 31.186 44.7958 31.1868 44.7959 31.1867C44.796 31.1865 44.7999 31.1855 44.8074 31.1839ZM45.2131 31.1873C45.2221 31.1894 45.2268 31.1908 45.227 31.191C45.2271 31.1912 45.2226 31.1902 45.2131 31.1873ZM44.9996 9.34951C46.5316 8.19875 48.436 7.51685 50.4996 7.51685C55.5622 7.51685 59.6662 11.6209 59.6662 16.6835C59.6662 24.0168 46.8329 33 44.9996 33C43.1662 33 30.3329 23.5288 30.3329 16.6835C30.3329 11.6209 34.4369 7.51685 39.4996 7.51685C41.5632 7.51685 43.4675 8.19875 44.9996 9.34951Z" fill="#FF832A"/>
<path d="M97.6667 23.8333C98.6792 23.8333 99.5 23.0124 99.5 21.9999C99.5 20.9874 98.6792 20.1666 97.6667 20.1666C96.6541 20.1666 95.8333 20.9874 95.8333 21.9999C95.8333 23.0124 96.6541 23.8333 97.6667 23.8333Z" fill="#FF832A"/>
<path d="M114.167 21.9999C114.167 23.0124 113.346 23.8333 112.333 23.8333C111.321 23.8333 110.5 23.0124 110.5 21.9999C110.5 20.9874 111.321 20.1666 112.333 20.1666C113.346 20.1666 114.167 20.9874 114.167 21.9999Z" fill="#FF832A"/>
<path d="M105 23.8333C106.013 23.8333 106.833 23.0124 106.833 21.9999C106.833 20.9874 106.013 20.1666 105 20.1666C103.987 20.1666 103.167 20.9874 103.167 21.9999C103.167 23.0124 103.987 23.8333 105 23.8333Z" fill="#FF832A"/>
<path fill-rule="evenodd" clip-rule="evenodd" d="M119.667 21.9999C119.667 30.1001 113.1 36.6666 105 36.6666C96.8998 36.6666 90.3333 30.1001 90.3333 21.9999C90.3333 13.8997 96.8998 7.33325 105 7.33325C113.1 7.33325 119.667 13.8997 119.667 21.9999ZM117.833 21.9999C117.833 29.0876 112.088 34.8333 105 34.8333C97.9123 34.8333 92.1667 29.0876 92.1667 21.9999C92.1667 14.9123 97.9123 9.16659 105 9.16659C112.088 9.16659 117.833 14.9123 117.833 21.9999Z" fill="#FF832A"/>
</svg>
