<svg width="150" height="44" viewBox="0 0 150 44" fill="none" xmlns="http://www.w3.org/2000/svg">
<rect width="150" height="44" rx="22" fill="#303030"/>
<path fill-rule="evenodd" clip-rule="evenodd" d="M45.0117 31.1089C44.9249 31.0708 44.8165 31.0192 44.6856 30.9515C44.2454 30.7237 43.6592 30.3697 42.9665 29.898C41.5855 28.9575 39.8836 27.6194 38.2329 26.0715C36.5772 24.519 35.0215 22.8004 33.893 21.1051C32.7401 19.373 32.1663 17.8634 32.1663 16.6836C32.1663 12.6335 35.4496 9.3503 39.4997 9.3503C41.1527 9.3503 42.6732 9.89502 43.8986 10.8155C44.5509 11.3055 45.4485 11.3055 46.1007 10.8155C47.3262 9.89502 48.8467 9.3503 50.4997 9.3503C54.5498 9.3503 57.833 12.6335 57.833 16.6836C57.833 18.0069 57.2405 19.586 56.1006 21.3196C54.9774 23.028 53.4289 24.725 51.7792 26.2427C50.1345 27.7558 48.4378 29.0462 47.0604 29.9482C46.3697 30.4005 45.7844 30.7387 45.3444 30.956C45.211 31.0219 45.1003 31.072 45.0117 31.1089ZM44.8075 31.184C44.7997 31.1862 44.7959 31.187 44.796 31.1868C44.7961 31.1867 44.8 31.1856 44.8075 31.184ZM45.2133 31.1874C45.2222 31.1895 45.227 31.1909 45.2271 31.1911C45.2272 31.1913 45.2227 31.1903 45.2133 31.1874ZM44.9997 9.34964C46.5317 8.19887 48.4361 7.51697 50.4997 7.51697C55.5623 7.51697 59.6664 11.621 59.6664 16.6836C59.6663 24.017 46.833 33.0001 44.9997 33.0001C43.1664 33.0001 30.333 23.5289 30.333 16.6836C30.333 11.621 34.4371 7.51697 39.4997 7.51697C41.5633 7.51697 43.4676 8.19887 44.9997 9.34964Z" fill="#FF832A"/>
<path d="M105 35.3333C112.364 35.3333 118.333 29.3638 118.333 22C118.333 14.6362 112.364 8.66668 105 8.66668C97.6361 8.66668 91.6666 14.6362 91.6666 22C91.6666 29.3638 97.6361 35.3333 105 35.3333ZM119.167 22C119.167 29.824 112.824 36.1667 105 36.1667C97.1759 36.1667 90.8333 29.824 90.8333 22C90.8333 14.176 97.1759 7.83334 105 7.83334C112.824 7.83334 119.167 14.176 119.167 22ZM98.9999 22C98.9999 22.7364 98.403 23.3333 97.6666 23.3333C96.9302 23.3333 96.3333 22.7364 96.3333 22C96.3333 21.2636 96.9302 20.6667 97.6666 20.6667C98.403 20.6667 98.9999 21.2636 98.9999 22ZM113.667 22C113.667 22.7364 113.07 23.3333 112.333 23.3333C111.597 23.3333 111 22.7364 111 22C111 21.2636 111.597 20.6667 112.333 20.6667C113.07 20.6667 113.667 21.2636 113.667 22ZM106.333 22C106.333 22.7364 105.736 23.3333 105 23.3333C104.264 23.3333 103.667 22.7364 103.667 22C103.667 21.2636 104.264 20.6667 105 20.6667C105.736 20.6667 106.333 21.2636 106.333 22Z" fill="#FF832A" stroke="#FF832A"/>
</svg>
