<svg width="24" height="24" viewBox="0 0 24 24" fill="none" xmlns="http://www.w3.org/2000/svg">
<rect width="24" height="24" fill="white"/>
<path fill-rule="evenodd" clip-rule="evenodd" d="M8.64867 8.64424C8.84515 8.4502 9.16173 8.45219 9.35576 8.64867L11.9834 11.3095L14.6464 8.64645C14.8417 8.45118 15.1583 8.45118 15.3536 8.64645C15.5488 8.84171 15.5488 9.15829 15.3536 9.35355L12.6861 12.021L15.3558 14.7244C15.5498 14.9208 15.5478 15.2374 15.3513 15.4314C15.1548 15.6255 14.8383 15.6235 14.6442 15.427L11.979 12.7281L9.35355 15.3536C9.15829 15.5488 8.84171 15.5488 8.64645 15.3536C8.45118 15.1583 8.45118 14.8417 8.64645 14.6464L11.2763 12.0166L8.64424 9.35133C8.4502 9.15485 8.45219 8.83827 8.64867 8.64424Z" />
</svg>
