<svg width="24" height="24" viewBox="0 0 24 24" fill="none" xmlns="http://www.w3.org/2000/svg">
<g clip-path="url(#clip0_165_242)">
<path fill-rule="evenodd" clip-rule="evenodd" d="M12 2.5C6.75329 2.5 2.5 6.75329 2.5 12C2.5 17.2467 6.75329 21.5 12 21.5C17.2467 21.5 21.5 17.2467 21.5 12C21.5 6.75329 17.2467 2.5 12 2.5ZM1.5 12C1.5 6.20101 6.20101 1.5 12 1.5C17.799 1.5 22.5 6.20101 22.5 12C22.5 17.799 17.799 22.5 12 22.5C6.20101 22.5 1.5 17.799 1.5 12ZM8.64645 8.64645C8.84171 8.45118 9.15829 8.45118 9.35355 8.64645L12 11.2929L14.6464 8.64645C14.8417 8.45118 15.1583 8.45118 15.3536 8.64645C15.5488 8.84171 15.5488 9.15829 15.3536 9.35355L12.7071 12L15.3536 14.6464C15.5488 14.8417 15.5488 15.1583 15.3536 15.3536C15.1583 15.5488 14.8417 15.5488 14.6464 15.3536L12 12.7071L9.35355 15.3536C9.15829 15.5488 8.84171 15.5488 8.64645 15.3536C8.45118 15.1583 8.45118 14.8417 8.64645 14.6464L11.2929 12L8.64645 9.35355C8.45118 9.15829 8.45118 8.84171 8.64645 8.64645Z" fill=""/>
</g>
<defs>
<clipPath id="clip0_165_242">
</clipPath>
</defs>
</svg>
