<svg width="24" height="24" viewBox="0 0 24 24" fill="none" xmlns="http://www.w3.org/2000/svg">
<rect width="24" height="24" fill="white"/>
<path fill-rule="evenodd" clip-rule="evenodd" d="M8.5 7C8.5 5.067 10.067 3.5 12 3.5C13.933 3.5 15.5 5.067 15.5 7C15.5 8.933 13.933 10.5 12 10.5C10.067 10.5 8.5 8.933 8.5 7ZM12 4.95C10.8678 4.95 9.95 5.86782 9.95 7C9.95 8.13218 10.8678 9.05 12 9.05C13.1322 9.05 14.05 8.13218 14.05 7C14.05 5.86782 13.1322 4.95 12 4.95ZM2.5 10C2.5 8.61929 3.61929 7.5 5 7.5C6.38071 7.5 7.5 8.61929 7.5 10C7.5 11.3807 6.38071 12.5 5 12.5C3.61929 12.5 2.5 11.3807 2.5 10ZM16.5 10C16.5 8.61929 17.6193 7.5 19 7.5C20.3807 7.5 21.5 8.61929 21.5 10C21.5 11.3807 20.3807 12.5 19 12.5C17.6193 12.5 16.5 11.3807 16.5 10ZM5 8.8C4.33726 8.8 3.8 9.33726 3.8 10C3.8 10.6627 4.33726 11.2 5 11.2C5.66274 11.2 6.2 10.6627 6.2 10C6.2 9.33726 5.66274 8.8 5 8.8ZM19 8.8C18.3373 8.8 17.8 9.33726 17.8 10C17.8 10.6627 18.3373 11.2 19 11.2C19.6627 11.2 20.2 10.6627 20.2 10C20.2 9.33726 19.6627 8.8 19 8.8ZM11.9855 11.5C12.9442 11.4975 13.8869 11.7456 14.7202 12.2198C15.5534 12.6939 16.2483 13.3777 16.7358 14.2032C17.2233 15.0287 17.4866 15.9673 17.4995 16.926C17.5124 17.8846 17.2745 18.83 16.8094 19.6683C16.6754 19.9098 16.371 19.9969 16.1296 19.863L15.4738 19.4991C15.3578 19.4348 15.2721 19.327 15.2356 19.1995C15.1991 19.072 15.2148 18.9353 15.2791 18.8193C15.5962 18.2477 15.7585 17.6032 15.7497 16.9495C15.7409 16.2959 15.5614 15.6559 15.229 15.0931C14.8966 14.5302 14.4228 14.064 13.8547 13.7408C13.2865 13.4175 12.6438 13.2483 11.9901 13.25C11.3364 13.2517 10.6945 13.4243 10.1281 13.7506C9.56171 14.0769 9.09042 14.5456 8.761 15.1102C8.43158 15.6748 8.25547 16.3157 8.25013 16.9694C8.24479 17.623 8.4104 18.2667 8.73055 18.8366C8.7955 18.9522 8.81186 19.0889 8.77603 19.2166C8.74021 19.3443 8.65513 19.4525 8.53951 19.5174L7.88562 19.8848C7.64487 20.02 7.34006 19.9345 7.20481 19.6937C6.73526 18.8579 6.49235 17.9138 6.50019 16.9551C6.50802 15.9964 6.76632 15.0564 7.24947 14.2283C7.73262 13.4002 8.42383 12.7128 9.25458 12.2342C10.0853 11.7557 11.0267 11.5026 11.9855 11.5ZM2.38762 14.1033C3.02165 13.709 3.75337 13.5 4.5 13.5C4.77614 13.5 5 13.7239 5 14V14.525C5 14.6576 4.94732 14.7848 4.85356 14.8786C4.75979 14.9723 4.63261 15.025 4.5 15.025C4.03803 15.025 3.58527 15.1543 3.19297 15.3983C2.80066 15.6422 2.48447 15.9911 2.28017 16.4055C2.07587 16.8198 1.99162 17.2831 2.03694 17.7428C2.08227 18.2026 2.25537 18.6405 2.53665 19.0069C2.61739 19.1121 2.65303 19.2451 2.63574 19.3766C2.61845 19.508 2.54964 19.6273 2.44444 19.708L2.02797 20.0277C1.80892 20.1958 1.49504 20.1545 1.3269 19.9355C0.872308 19.3432 0.592556 18.6355 0.519301 17.8925C0.446047 17.1494 0.582214 16.4007 0.912397 15.7311C1.24258 15.0614 1.75359 14.4976 2.38762 14.1033ZM19.1464 13.6464C19.2402 13.5527 19.3674 13.5 19.5 13.5C20.2239 13.5 20.9343 13.6965 21.5553 14.0684C22.1763 14.4404 22.6848 14.9739 23.0265 15.6121C23.3681 16.2504 23.5302 16.9693 23.4954 17.6924C23.4606 18.4155 23.2302 19.1156 22.8287 19.718C22.7552 19.8283 22.6409 19.905 22.5108 19.931C22.3808 19.9571 22.2458 19.9304 22.1354 19.8568L21.6985 19.5657C21.4687 19.4126 21.4065 19.1022 21.5597 18.8724C21.808 18.4996 21.9506 18.0665 21.9721 17.6191C21.9937 17.1716 21.8934 16.7268 21.682 16.3319C21.4706 15.937 21.156 15.6069 20.7717 15.3767C20.3875 15.1466 19.9479 15.025 19.5 15.025C19.2239 15.025 19 14.8011 19 14.525V14C19 13.8674 19.0527 13.7402 19.1464 13.6464Z" />
</svg>
