<svg width="24" height="24" viewBox="0 0 24 24" fill="none" xmlns="http://www.w3.org/2000/svg">
<path fill-rule="evenodd" clip-rule="evenodd" d="M14 20.3964C14 20.6191 13.7307 20.7307 13.5732 20.5732L9 16H4.5C4.22386 16 4 15.7761 4 15.5V10.5C4 10.2238 4.22386 9.99998 4.5 9.99998H9L13.5732 5.42675C13.7307 5.26926 14 5.3808 14 5.60353V20.3964ZM8.25 11.5H5.5V14.5H8.25V11.5ZM9.75 14.6287V11.3713L12.5 8.6213V17.3787L9.75 14.6287Z" fill=""/>
<path d="M17.5174 16.4241C17.7628 16.7579 18.2371 16.8331 18.5305 16.5406C18.8911 16.181 19.1957 15.7674 19.4327 15.3133C19.7857 14.6368 19.9792 13.8885 19.9984 13.1258C20.0176 12.363 19.862 11.6059 19.5434 10.9125C19.3296 10.4471 19.0461 10.0187 18.7041 9.64141C18.4258 9.33456 17.9483 9.38579 17.6865 9.70675C17.4247 10.0277 17.4806 10.4963 17.7385 10.8204C17.9137 11.0405 18.0622 11.2815 18.1804 11.5388C18.4034 12.0241 18.5123 12.5541 18.4989 13.088C18.4855 13.622 18.35 14.1458 18.1029 14.6193C17.9719 14.8702 17.8114 15.1035 17.6254 15.3145C17.3515 15.6252 17.2721 16.0904 17.5174 16.4241Z" fill=""/>
<path d="M16.2218 15.0158C15.9991 15.2612 15.6179 15.2006 15.4216 14.9336C15.2253 14.6666 15.294 14.2944 15.482 14.0215C15.5237 13.9611 15.5617 13.8981 15.5958 13.8328C15.7229 13.5892 15.7925 13.3199 15.7994 13.0453C15.8063 12.7706 15.7503 12.4981 15.6356 12.2485C15.6049 12.1815 15.5701 12.1167 15.5315 12.0543C15.3574 11.7723 15.3076 11.397 15.5171 11.1403C15.7265 10.8835 16.1103 10.8421 16.3204 11.0984C16.4822 11.296 16.6187 11.514 16.726 11.7475C16.9172 12.1635 17.0106 12.6178 16.9991 13.0754C16.9875 13.5331 16.8714 13.9821 16.6596 14.388C16.5407 14.6158 16.3934 14.8267 16.2218 15.0158Z" fill=""/>
</svg>
