<svg width="24" height="24" viewBox="0 0 24 24" fill="none" xmlns="http://www.w3.org/2000/svg">
<g clip-path="url(#clip0_327_3514)">
<path d="M17.8869 2.87744C15.6224 1.41613 12.8954 0.84928 10.2361 1.28713C7.57683 1.72499 5.17547 3.13624 3.49903 5.24644C1.82259 7.35664 0.99091 10.0149 1.16574 12.7043C1.28783 14.5824 1.89467 16.3819 2.90885 17.9354L6.28572 15.4286L7.13913 15.0019C7.31869 14.9121 7.5322 14.9231 7.70156 15.0309L9.71428 16.3123C11.1474 17.056 12.8526 17.056 14.2857 16.3123L16.2984 15.0309C16.4678 14.9231 16.6813 14.9121 16.8609 15.0019L17.7143 15.4286L21.0911 17.9354C21.9716 16.5867 22.5484 15.0477 22.7632 13.425C23.1154 10.7648 22.4699 8.0688 20.952 5.85691L20.1449 4.95177L20.9979 4.19114L21.8524 5.14941L21.8725 5.1785C23.5658 7.62915 24.2871 10.622 23.8962 13.575C23.5052 16.528 22.0299 19.23 19.7572 21.1556C17.4845 23.0812 14.5769 24.0927 11.5998 23.9933C8.62269 23.894 5.78895 22.6909 3.64967 20.6181C1.5104 18.5453 0.218525 15.7509 0.0252917 12.7785C-0.167941 9.80597 0.751282 6.86786 2.60419 4.53554C4.4571 2.20322 7.11124 0.643405 10.0504 0.159462C12.9896 -0.324481 16.0037 0.302038 18.5066 1.91717L17.8869 2.87744Z" fill="#0F0F0F"/>
<path d="M15.4286 7.42859L16 5.71431L19.4285 2.28574L20.5714 3.4286L17.1428 6.85717L15.4286 7.42859Z" fill="#0F0F0F"/>
<path d="M21.143 2.85717L20 1.71432L21.143 0.571462C21.7742 0.571462 22.2858 1.08314 22.2858 1.71432L21.143 2.85717Z" fill="#0F0F0F"/>
<path d="M12 14.8572C14.5247 14.8572 16.5714 12.8105 16.5714 10.2857C16.5714 7.76101 14.5247 5.71431 12 5.71431C9.47527 5.71431 7.42857 7.76101 7.42857 10.2857C7.42857 12.8105 9.47527 14.8572 12 14.8572Z" fill="#0F0F0F"/>
</g>
<defs>
<clipPath id="clip0_327_3514">
<rect width="24" height="24" fill="white"/>
</clipPath>
</defs>
</svg>
