<svg width="24" height="24" viewBox="0 0 24 24" fill="none" xmlns="http://www.w3.org/2000/svg">

<path fill-rule="evenodd" clip-rule="evenodd" d="M14 20.3964C14 20.6191 13.7307 20.7307 13.5732 20.5732L9 16H4.5C4.22386 16 4 15.7761 4 15.5V10.5C4 10.2238 4.22386 9.99998 4.5 9.99998H9L13.5732 5.42675C13.7307 5.26926 14 5.3808 14 5.60353V20.3964ZM8.25 11.5H5.5V14.5H8.25V11.5ZM9.75 14.6287V11.3713L12.5 8.6213V17.3787L9.75 14.6287Z" />
<path d="M15.4697 10.4696C15.7626 10.1768 16.2374 10.1768 16.5303 10.4696L18 11.9393L19.4697 10.4696C19.7626 10.1768 20.2374 10.1768 20.5303 10.4696C20.8232 10.7625 20.8232 11.2374 20.5303 11.5303L19.0607 13L20.5303 14.4696C20.8232 14.7625 20.8232 15.2374 20.5303 15.5303C20.2374 15.8232 19.7626 15.8232 19.4697 15.5303L18 14.0606L16.5303 15.5303C16.2374 15.8232 15.7626 15.8232 15.4697 15.5303C15.1768 15.2374 15.1768 14.7625 15.4697 14.4696L16.9393 13L15.4697 11.5303C15.1768 11.2374 15.1768 10.7625 15.4697 10.4696Z" />
</svg>
