<svg width="24" height="24" viewBox="0 0 24 24" fill="none" xmlns="http://www.w3.org/2000/svg">

<path fill-rule="evenodd" clip-rule="evenodd" d="M12.0063 16.9684C11.959 16.9476 11.8998 16.9195 11.8284 16.8826C11.5883 16.7583 11.2686 16.5652 10.8908 16.3079C10.1375 15.7949 9.20917 15.0651 8.30879 14.2208C7.40569 13.3739 6.5571 12.4365 5.94158 11.5118C5.31269 10.567 4.99976 9.74358 4.99976 9.1001C4.99976 6.89096 6.79062 5.1001 8.99976 5.1001C9.90139 5.1001 10.7307 5.39722 11.3992 5.8993C11.755 6.16655 12.2445 6.16655 12.6003 5.8993C13.2688 5.39722 14.0981 5.1001 14.9998 5.1001C17.2089 5.1001 18.9998 6.89096 18.9998 9.1001C18.9998 9.82187 18.6765 10.6832 18.0548 11.6288C17.4421 12.5606 16.5975 13.4863 15.6977 14.3141C14.8006 15.1394 13.8751 15.8433 13.1238 16.3353C12.7471 16.582 12.4278 16.7665 12.1878 16.885C12.115 16.921 12.0547 16.9483 12.0063 16.9684ZM11.8949 17.0094C11.8907 17.0106 11.8886 17.011 11.8887 17.0109C11.8887 17.0108 11.8909 17.0102 11.8949 17.0094ZM12.1163 17.0113C12.1212 17.0124 12.1237 17.0132 12.1238 17.0133C12.1239 17.0134 12.1214 17.0128 12.1163 17.0113ZM11.9998 5.09973C12.8354 4.47204 13.8742 4.1001 14.9998 4.1001C17.7612 4.1001 19.9998 6.33867 19.9998 9.1001C19.9998 13.1001 12.9998 18 11.9998 18C10.9998 18 3.99976 12.8339 3.99976 9.1001C3.99976 6.33867 6.23833 4.1001 8.99976 4.1001C10.1254 4.1001 11.1641 4.47204 11.9998 5.09973Z" fill=""/>
</svg>
