<svg width="24" height="24" viewBox="0 0 24 24" fill="none" xmlns="http://www.w3.org/2000/svg">

<path d="M12.8822 3.04335C14.9543 3.24744 16.8916 4.16372 18.364 5.63605L16.1366 7.86344C15.1796 6.90642 13.9203 6.31084 12.5734 6.17818C11.2265 6.04552 9.87525 6.38399 8.74992 7.13592C7.62458 7.88784 6.79478 9.0067 6.4019 10.3018C6.00902 11.597 6.07737 12.9883 6.59531 14.2387C7.11324 15.4891 8.04871 16.5213 9.24233 17.1593C10.4359 17.7973 11.8139 18.0016 13.1413 17.7376C14.4687 17.4736 15.6635 16.7574 16.5221 15.7112C17.0126 15.1135 17.3761 14.4292 17.5975 13.7H12V11H21V11.9L20.9444 12H21C21 14.0822 20.278 16.1 18.9571 17.7096C17.6362 19.3191 15.798 20.4209 13.7558 20.8271C11.7136 21.2333 9.59377 20.9188 7.75743 19.9373C5.9211 18.9558 4.48191 17.3679 3.68509 15.4442C2.88826 13.5205 2.78311 11.38 3.38754 9.38745C3.99197 7.39491 5.26859 5.6736 6.99987 4.51679C8.73115 3.35998 10.81 2.83926 12.8822 3.04335Z" fill=""/>
</svg>
