<svg width="24" height="24" viewBox="0 0 24 24" fill="none" xmlns="http://www.w3.org/2000/svg">

<path fill-rule="evenodd" clip-rule="evenodd" d="M10 16C10 15.4478 10.4477 15 11 15H13C13.5523 15 14 15.4478 14 16V19H16.5C16.7761 19 17 18.7762 17 18.5V10.7026C17 10.5542 16.9341 10.4135 16.8201 10.3185L12 6.30176L7.17991 10.3185C7.06591 10.4135 7 10.5542 7 10.7026V18.5C7 18.7762 7.22386 19 7.5 19H10V16ZM11 19C11 19.5523 10.5523 20 10 20H7.5C6.67157 20 6 19.3285 6 18.5V10.7026C6 10.2574 6.19773 9.83527 6.53972 9.55028L11.3598 5.53354C11.7307 5.2245 12.2693 5.2245 12.6402 5.53354L17.4603 9.55028C17.8023 9.83527 18 10.2574 18 10.7026V18.5C18 19.3285 17.3284 20 16.5 20H14C13.4477 20 13 19.5523 13 19V16H11V19Z"/>
</svg>
