<svg width="24" height="24" viewBox="0 0 24 24" fill="none" xmlns="http://www.w3.org/2000/svg">

<path fill-rule="evenodd" clip-rule="evenodd" d="M12 2.25C12.4142 2.25 12.75 2.58579 12.75 3V20.5C12.75 20.9142 12.4142 21.25 12 21.25C11.5858 21.25 11.25 20.9142 11.25 20.5V3C11.25 2.58579 11.5858 2.25 12 2.25ZM18 6.25C18.4142 6.25 18.75 6.58579 18.75 7L18.75 20.5C18.75 20.9142 18.4142 21.25 18 21.25C17.5858 21.25 17.25 20.9142 17.25 20.5L17.25 7C17.25 6.58579 17.5858 6.25 18 6.25ZM6 9.25C6.41421 9.25 6.75 9.58579 6.75 10V20.5C6.75 20.9142 6.41421 21.25 6 21.25C5.58579 21.25 5.25 20.9142 5.25 20.5V10C5.25 9.58579 5.58579 9.25 6 9.25Z" />
</svg>
