<svg width="24" height="24" viewBox="0 0 24 24" fill="none" xmlns="http://www.w3.org/2000/svg">

<path fill-rule="evenodd" clip-rule="evenodd" d="M5.13736 3.95929C5.23198 2.86057 7.26137 1.99744 7.26137 1.99744L9.17886 9.6684C9.26313 9.96928 9.20407 10.2931 9.01936 10.5429C8.83464 10.7927 8.54568 10.9396 8.23894 10.9396L2.37358 10.9396C0.907434 10.9396 0.880875 10.9396 1.10067 9.9426C1.32047 8.94563 1.88486 8.44678 1.88486 8.44678L2.68237 8.96006C3.98061 9.79562 5.65066 9.78977 6.94298 8.94514C7.23524 7.08635 6.55463 5.20124 5.13736 3.95929ZM8.5 2.49624C8.5 1.70313 10 1 10 1L14.7113 22.9065C14.7113 22.9065 13.3224 22.67 12.8224 22.1714C12.3224 21.6728 8.5 3.28935 8.5 2.49624ZM13.3273 10.3343C13.5122 10.0873 13.7995 9.94236 14.1041 9.94236H23C23 9.94236 23 9.94236 23 10.9396C23 11.4903 22.5 12.9674 22.5 12.9674L22.0417 12.6499C19 10.9396 19.5 10.9396 15.5704 11.9368V13.9796C15.5704 15.634 15.9809 17.2625 16.765 18.7193L18.5 21.9426C18.5 21.9426 17.5209 22.7949 17 22.9398C16 23.218 15.5704 22.4412 15.5704 22.4412L13.1611 11.202C13.0809 10.9021 13.1424 10.5813 13.3273 10.3343Z" fill="#FF832A"/>
</svg>
