<svg width="24" height="24" viewBox="0 0 24 24" fill="none" xmlns="http://www.w3.org/2000/svg">

<path fill-rule="evenodd" clip-rule="evenodd" d="M9.43834 17.6011L9.44769 17.6053C9.46292 17.612 9.49323 17.6248 9.53862 17.6418C9.62937 17.6758 9.78064 17.7269 9.99254 17.7799C10.4157 17.8856 11.0842 18 12 18C15.3137 18 18 15.3137 18 12C18 8.68629 15.3137 6 12 6C8.68629 6 6 8.68629 6 12C6 13.4025 6.47995 14.6901 7.28527 15.7114C7.57246 16.0757 7.51348 16.4797 7.50129 16.5631L7.50098 16.5652C7.47971 16.7113 7.43567 16.8415 7.40185 16.9307C7.33095 17.1177 7.22752 17.3223 7.1252 17.5097C7.06914 17.6124 7.00799 17.7197 6.94389 17.8289L9.15636 17.4601L9.43834 17.6011ZM9 18.5C9 18.5 10 19 12 19C15.866 19 19 15.866 19 12C19 8.13401 15.866 5 12 5C8.13401 5 5 8.13401 5 12C5 13.635 5.56057 15.1391 6.5 16.3306C6.61368 16.4748 6.02784 17.4402 5.55524 18.1689C5.32532 18.5235 5.57744 19 6 19L9 18.5Z" fill=""/>
</svg>
