<svg width="24" height="24" viewBox="0 0 24 24" fill="none" xmlns="http://www.w3.org/2000/svg">

<path d="M9 12C9 12.5523 8.55229 13 8 13C7.44771 13 7 12.5523 7 12C7 11.4477 7.44771 11 8 11C8.55229 11 9 11.4477 9 12Z" />
<path d="M16.9999 12C16.9999 12.5523 16.5522 13 15.9999 13C15.4476 13 14.9999 12.5523 14.9999 12C14.9999 11.4477 15.4476 11 15.9999 11C16.5522 11 16.9999 11.4477 16.9999 12Z" />
<path d="M11.9999 13C12.5522 13 12.9999 12.5523 12.9999 12C12.9999 11.4477 12.5522 11 11.9999 11C11.4476 11 10.9999 11.4477 10.9999 12C10.9999 12.5523 11.4476 13 11.9999 13Z" />
</svg>
