<svg width="24" height="24" viewBox="0 0 24 24" fill="none" xmlns="http://www.w3.org/2000/svg">
<rect width="24" height="24" fill="white"/>
<path d="M19.25 3.04193L20.25 2.04193C20.868 1.83593 21.456 2.42391 21.25 3.04193L20.25 4.04193L19.25 3.04193Z" />
<path d="M19.75 4.54193L9.75 14.5419L7.75 15.5419L8.75 13.5419L18.75 3.54193L19.75 4.54193Z" />
<path d="M2 5.54193C2 4.57544 2.7835 3.79193 3.75 3.79193H16.75L15.75 5.29193H3.75C3.61193 5.29193 3.5 5.40386 3.5 5.54193V19.5419C3.5 19.68 3.61193 19.7919 3.75 19.7919H17.75C17.8881 19.7919 18 19.68 18 19.5419V7.54193L19.5 6.54193V19.5419C19.5 20.5084 18.7165 21.2919 17.75 21.2919H3.75C2.7835 21.2919 2 20.5084 2 19.5419V5.54193Z" />
</svg>
