<svg width="24" height="24" viewBox="0 0 24 24" fill="none" xmlns="http://www.w3.org/2000/svg">
<rect width="24" height="24" fill="white"/>
<path fill-rule="evenodd" clip-rule="evenodd" d="M10.6004 3.00365C10.8271 2.97237 11.0343 3.1457 11.0633 3.39078L11.5913 7.86445C11.6034 7.96628 11.5826 8.06947 11.5326 8.15673L10.8 9.43492C10.7843 9.4624 10.7658 9.48795 10.745 9.51113L9.82759 10.5313V19.5526C9.82759 19.7997 9.64233 20 9.41379 20H8.37931C8.15078 20 7.96552 19.7997 7.96552 19.5526V10.5313L7.04814 9.51113C7.03812 9.49998 7.02864 9.48828 7.01974 9.47606L6.0887 8.19787C6.02246 8.10692 5.9914 7.99176 6.00205 7.87657L6.41585 3.4029C6.43859 3.15705 6.64136 2.97768 6.86876 3.00227C7.09616 3.02685 7.26207 3.24608 7.23933 3.49193L6.84214 7.78606L7.65656 8.90416L8.676 10.0378C8.75109 10.1213 8.7931 10.2332 8.7931 10.3497V19.1053H9V10.3497C9 10.2332 9.04201 10.1213 9.11711 10.0378L10.1202 8.9223L10.7518 7.82032L10.2423 3.50405C10.2134 3.25896 10.3737 3.03493 10.6004 3.00365ZM17.7541 3.03851C17.9036 3.11026 18 3.27053 18 3.44742V19.5526C18 19.7997 17.8147 20 17.5862 20H15.8126C15.7018 20 15.5955 19.9519 15.5177 19.8664C15.44 19.781 15.3971 19.6654 15.3989 19.5455L15.5136 11.7452C15.4351 11.6873 15.3416 11.6127 15.2468 11.5242C15.1267 11.4121 14.9936 11.2674 14.888 11.0955C14.783 10.9244 14.6897 10.7006 14.6897 10.4398V7.02635C14.6897 6.59816 14.9073 6.13474 15.1438 5.73904C15.3932 5.32184 15.7193 4.89087 16.0363 4.5074C16.3548 4.12205 16.6722 3.77494 16.9092 3.52473C17.028 3.39939 17.1271 3.29782 17.1969 3.2273C17.2317 3.19202 17.2593 3.16448 17.2783 3.14558L17.3003 3.12382L17.3062 3.118L17.3079 3.1164C17.3079 3.1164 17.3086 3.11568 17.5862 3.44742L17.3079 3.1164C17.4292 2.99773 17.6045 2.96676 17.7541 3.03851ZM17.1724 4.50494C17.0093 4.68508 16.8312 4.88851 16.6534 5.10359C16.3496 5.47106 16.0551 5.86293 15.8389 6.22462C15.6099 6.60782 15.5172 6.87936 15.5172 7.02635V10.4398C15.5172 10.4665 15.5274 10.519 15.5775 10.6007C15.6271 10.6814 15.7009 10.766 15.7877 10.847C15.8729 10.9266 15.9601 10.9931 16.0271 11.04C16.0601 11.0632 16.0872 11.081 16.1052 11.0924C16.1142 11.0982 16.1209 11.1023 16.1249 11.1047L16.1283 11.1067C16.2637 11.1862 16.3472 11.3406 16.3448 11.5071L16.2331 19.1053H17.1724V4.50494ZM8.06897 3.00005C8.2975 3.00005 8.48276 3.20034 8.48276 3.44742V7.92109C8.48276 8.16816 8.2975 8.36845 8.06897 8.36845C7.84044 8.36845 7.65517 8.16816 7.65517 7.92109V3.44742C7.65517 3.20034 7.84044 3.00005 8.06897 3.00005ZM9.41379 3.00005C9.64233 3.00005 9.82759 3.20034 9.82759 3.44742V7.92109C9.82759 8.16816 9.64233 8.36845 9.41379 8.36845C9.18526 8.36845 9 8.16816 9 7.92109V3.44742C9 3.20034 9.18526 3.00005 9.41379 3.00005Z" />
</svg>
