<svg width="24" height="24" viewBox="0 0 24 24" fill="none" xmlns="http://www.w3.org/2000/svg">
<rect width="24" height="24" fill="white"/>
<path fill-rule="evenodd" clip-rule="evenodd" d="M6.5 6C6.5 5.72386 6.72386 5.5 7 5.5H9C9.27614 5.5 9.5 5.72386 9.5 6V18C9.5 18.2761 9.27614 18.5 9 18.5H7C6.72386 18.5 6.5 18.2761 6.5 18V6ZM14.5 6C14.5 5.72386 14.7239 5.5 15 5.5H17C17.2761 5.5 17.5 5.72386 17.5 6V18C17.5 18.2761 17.2761 18.5 17 18.5H15C14.7239 18.5 14.5 18.2761 14.5 18V6ZM7 6V18H9V6H7ZM15 6V18H17V6H15Z" />
</svg>
