<svg width="24" height="24" viewBox="0 0 24 24" fill="none" xmlns="http://www.w3.org/2000/svg">
<rect width="24" height="24" fill="white"/>
<path d="M17.5 11.134C18.1667 11.5189 18.1667 12.4811 17.5 12.866L8.5 18.0622C7.83333 18.4471 7 17.966 7 17.1962V6.80386C7 6.03406 7.83333 5.55293 8.5 5.93783L17.5 11.134Z" />
<path fill-rule="evenodd" clip-rule="evenodd" d="M8.25 17.6292L17.25 12.433C17.5833 12.2406 17.5833 11.7594 17.25 11.567L8.25 6.37085C7.91667 6.1784 7.5 6.41896 7.5 6.80386V17.1962C7.5 17.5811 7.91667 17.8216 8.25 17.6292ZM17.5 12.866C18.1667 12.4811 18.1667 11.5189 17.5 11.134L8.5 5.93783C7.83333 5.55293 7 6.03406 7 6.80386V17.1962C7 17.966 7.83333 18.4471 8.5 18.0622L17.5 12.866Z" />
</svg>
