<svg width="24" height="24" viewBox="0 0 24 24" fill="none" xmlns="http://www.w3.org/2000/svg">
<path d="M17.0762 8.48014C17.3413 8.16193 17.2983 7.68901 16.9801 7.42383C16.6619 7.15866 16.189 7.20165 15.9238 7.51986L11.4496 12.8889L9.03033 10.4697C8.73744 10.1768 8.26256 10.1768 7.96967 10.4697C7.67678 10.7626 7.67678 11.2374 7.96967 11.5303L10.9697 14.5303C11.1187 14.6793 11.3235 14.7588 11.534 14.7492C11.7445 14.7397 11.9413 14.642 12.0762 14.4801L17.0762 8.48014Z" fill=""/>
<path fill-rule="evenodd" clip-rule="evenodd" d="M18.5 1H4.5C3.11929 1 2 2.11929 2 3.5V11C2 14.3932 3.1548 16.7764 4.93942 18.5607C6.57671 20.1978 9.22764 21.8747 10.2511 22.4998C10.9937 22.9533 11.9204 22.9823 12.6917 22.5667C13.7994 21.9699 16.8645 20.2566 18.5606 18.5607C20.4839 16.6377 21 14.1376 21 11V3.5C21 2.11929 19.8807 1 18.5 1ZM3.5 3.5C3.5 2.94772 3.94772 2.5 4.5 2.5H18.5C19.0523 2.5 19.5 2.94772 19.5 3.5V11C19.5 14 19 16.0002 17.5 17.5C15.9837 19.0161 13.1157 20.6345 11.9803 21.2462C11.6811 21.4073 11.3229 21.3968 11.033 21.2197C9.99997 20.5888 7.4949 18.9947 6 17.5C4.5 16.0002 3.5 14 3.5 11V3.5Z" fill=""/>
</svg>
