<svg width="24" height="24" viewBox="0 0 24 24" fill="none" xmlns="http://www.w3.org/2000/svg">
<rect width="24" height="24" fill="white"/>
<path d="M16 10C16 12.2091 14.2091 14 12 14C9.79086 14 8 12.2091 8 10C8 7.79086 9.79086 6 12 6C14.2091 6 16 7.79086 16 10Z" />
<path fill-rule="evenodd" clip-rule="evenodd" d="M12 22C17.5228 22 22 17.5228 22 12C22 6.47715 17.5228 2 12 2C6.47715 2 2 6.47715 2 12C2 17.5228 6.47715 22 12 22ZM12 21.5C17.2467 21.5 21.5 17.2467 21.5 12C21.5 6.75329 17.2467 2.5 12 2.5C6.75329 2.5 2.5 6.75329 2.5 12C2.5 17.2467 6.75329 21.5 12 21.5Z" />
<path d="M20.4414 16.3611C19.0001 17.9999 18.5433 18.6909 16.776 20.0001C15.0433 20.6909 13.5262 21.0306 11.8106 20.9981C10 20.9638 8.50004 20.4999 6.93704 19.6235C5.50004 18.4999 4.50004 17.4999 3.55866 16.3612L4.50006 15.725C4.50006 15.725 6.00006 14.5001 6.93704 13.9998C7.87403 13.4995 8.11455 13.7042 8.11455 13.7042C8.52307 14.4047 8.90796 14.6648 9.60726 15.0754C10.3066 15.4859 11.0997 15.7096 11.9105 15.725C12.7213 15.7404 13.5223 15.5468 14.2367 15.163C14.951 14.7793 15.5546 14.2181 15.9893 13.5336C15.9893 13.5336 16.3119 13.3227 17.5001 13.9995C18.6883 14.6764 19.5001 15.5001 20.0001 16.0001C20.5001 16.5001 20.4414 16.3611 20.4414 16.3611Z" />
<path fill-rule="evenodd" clip-rule="evenodd" d="M1.75 12C1.75 6.33908 6.33908 1.75 12 1.75C17.6609 1.75 22.25 6.33908 22.25 12C22.25 17.6609 17.6609 22.25 12 22.25C6.33908 22.25 1.75 17.6609 1.75 12ZM12 2.75C6.89137 2.75 2.75 6.89137 2.75 12C2.75 13.4306 3.07477 14.7854 3.65462 15.9946L4.3509 15.5241L4.35968 15.5169L4.40963 15.4766C4.45299 15.4417 4.51583 15.3914 4.59411 15.3296C4.7506 15.206 4.96911 15.0359 5.21727 14.8499C5.70985 14.4808 6.3324 14.0392 6.81929 13.7792C7.30506 13.5199 7.63517 13.4294 7.86118 13.4149C7.97567 13.4076 8.06564 13.4196 8.13544 13.441C8.17022 13.4516 8.19915 13.4643 8.22279 13.4773C8.23457 13.4838 8.2449 13.4902 8.25386 13.4964C8.25834 13.4995 8.26247 13.5026 8.26625 13.5055L8.27167 13.5097L8.27419 13.5118L8.2754 13.5128C8.2754 13.5128 8.27658 13.5138 8.11455 13.7042L8.27658 13.5138C8.29806 13.5321 8.31629 13.5539 8.3305 13.5783C8.52314 13.9086 8.70478 14.1264 8.91583 14.3098C9.13113 14.4969 9.38379 14.6543 9.73383 14.8598C10.3961 15.2486 11.1474 15.4605 11.9152 15.475C12.6831 15.4896 13.4418 15.3063 14.1184 14.9428C14.7949 14.5793 15.3665 14.0479 15.7783 13.3996C15.7974 13.3695 15.8227 13.3439 15.8525 13.3244L15.9893 13.5336C15.8525 13.3244 15.8525 13.3244 15.8525 13.3244L15.8538 13.3235L15.8552 13.3227L15.858 13.3209L15.864 13.3173C15.8682 13.3148 15.8728 13.3122 15.8779 13.3096C15.8879 13.3044 15.8996 13.299 15.9128 13.2937C15.9395 13.283 15.9723 13.273 16.012 13.2655C16.0914 13.2506 16.1965 13.2461 16.3336 13.2651C16.6054 13.3029 17.0141 13.435 17.6238 13.7823C18.8155 14.4611 19.6374 15.2835 20.1411 15.7875C20.1532 15.7996 20.1651 15.8115 20.1768 15.8233C20.2443 15.8907 20.3006 15.9456 20.3476 15.99C20.926 14.782 21.25 13.4288 21.25 12C21.25 6.89137 17.1086 2.75 12 2.75ZM20.0656 16.4108C19.9999 16.3506 19.9203 16.2739 19.8233 16.1768L19.7925 16.146C19.2912 15.6445 18.5089 14.8619 17.3763 14.2167C16.7978 13.8872 16.4512 13.7863 16.2647 13.7604C16.2113 13.7529 16.1721 13.7518 16.145 13.7528C15.692 14.435 15.0773 14.9952 14.355 15.3833C13.6029 15.7874 12.7594 15.9911 11.9058 15.975C11.0521 15.9588 10.217 15.7232 9.48069 15.291C9.13143 15.0859 8.84199 14.908 8.5879 14.6872C8.34932 14.48 8.14765 14.2403 7.94817 13.9133C7.93394 13.9125 7.91575 13.9124 7.89315 13.9139C7.76466 13.9221 7.50601 13.9794 7.05479 14.2203C6.6047 14.4606 6.00876 14.8816 5.5171 15.2501C5.27314 15.4329 5.05809 15.6003 4.90405 15.722C4.82706 15.7828 4.76539 15.8321 4.72306 15.8662L4.67459 15.9053L4.66219 15.9154L4.65822 15.9186C4.65238 15.9234 4.64629 15.9279 4.64004 15.9321L3.92813 16.4132C4.80422 17.4479 5.75088 18.3773 7.07595 19.4148C8.60183 20.2677 10.0576 20.7149 11.8154 20.7481C13.4803 20.7797 14.9564 20.4534 16.6533 19.7798C18.0635 18.7324 18.6127 18.0949 19.5604 16.9947C19.7161 16.8139 19.8827 16.6205 20.0656 16.4108ZM12 6.25C9.92893 6.25 8.25 7.92893 8.25 10C8.25 12.0711 9.92893 13.75 12 13.75C14.0711 13.75 15.75 12.0711 15.75 10C15.75 7.92893 14.0711 6.25 12 6.25ZM7.75 10C7.75 7.65279 9.65279 5.75 12 5.75C14.3472 5.75 16.25 7.65279 16.25 10C16.25 12.3472 14.3472 14.25 12 14.25C9.65279 14.25 7.75 12.3472 7.75 10Z" />
</svg>
