<svg width="24" height="24" viewBox="0 0 24 24" fill="none" xmlns="http://www.w3.org/2000/svg">
<rect width="24" height="24" fill="white"/>
<path fill-rule="evenodd" clip-rule="evenodd" d="M8.5 1.5C8.77614 1.5 9 1.72386 9 2V3.5H15V2C15 1.72386 15.2239 1.5 15.5 1.5C15.7761 1.5 16 1.72386 16 2V3.5H19C19.8284 3.5 20.5 4.17157 20.5 5V19C20.5 19.8284 19.8284 20.5 19 20.5H5C4.17157 20.5 3.5 19.8284 3.5 19V5C3.5 4.17157 4.17157 3.5 5 3.5H8V2C8 1.72386 8.22386 1.5 8.5 1.5ZM8 4.5H5C4.72386 4.5 4.5 4.72386 4.5 5V8H19.5V5C19.5 4.72386 19.2761 4.5 19 4.5H16V6C16 6.27614 15.7761 6.5 15.5 6.5C15.2239 6.5 15 6.27614 15 6V4.5H9V6C9 6.27614 8.77614 6.5 8.5 6.5C8.22386 6.5 8 6.27614 8 6V4.5ZM4.5 9V19C4.5 19.2761 4.72386 19.5 5 19.5H19C19.2761 19.5 19.5 19.2761 19.5 19V9H4.5Z" />
</svg>
