<svg width="24" height="24" viewBox="0 0 24 24" fill="none" xmlns="http://www.w3.org/2000/svg">
<rect width="24" height="24" fill="white"/>
<path fill-rule="evenodd" clip-rule="evenodd" d="M11.5 5.5C7.60502 5.5 4.5 8.46461 4.5 12.0588C4.5 15.653 7.60502 18.6176 11.5 18.6176C15.395 18.6176 18.5 15.653 18.5 12.0588C18.5 8.46461 15.395 5.5 11.5 5.5ZM3.5 12.0588C3.5 7.85608 7.11071 4.5 11.5 4.5C15.8893 4.5 19.5 7.85608 19.5 12.0588C19.5 14.2148 18.5498 16.148 17.0317 17.5196L20.3427 20.6359C20.5438 20.8252 20.5534 21.1416 20.3641 21.3427C20.1748 21.5438 19.8584 21.5534 19.6573 21.3641L16.2402 18.148C14.9099 19.0731 13.2681 19.6176 11.5 19.6176C7.11071 19.6176 3.5 16.2616 3.5 12.0588Z" fill="black"/>
</svg>
