<svg width="24" height="24" viewBox="0 0 24 24" fill="none" xmlns="http://www.w3.org/2000/svg">
<path fill-rule="evenodd" clip-rule="evenodd" d="M13.0085 4.79495C12.9091 4.33131 12.4994 4 12.0252 4H11.4199C10.9138 4 10.4765 4.35363 10.3705 4.84848C10.1972 5.65727 9.21255 5.97436 8.60006 5.41846C8.22539 5.0784 7.66408 5.04629 7.25307 5.34139L6.71984 5.72424C6.35883 5.98344 6.22797 6.45967 6.40579 6.86698C6.70363 7.5492 6.13015 8.2913 5.39489 8.17495C4.95599 8.1055 4.5282 8.35209 4.36833 8.7667L4.18936 9.23082C3.97393 9.78951 4.17811 10.4228 4.67927 10.7505C5.46807 11.2663 5.43992 12.4314 4.62705 12.9084C4.11066 13.2114 3.8761 13.8339 4.06417 14.4023L4.1657 14.7092C4.33722 15.2276 4.84758 15.5558 5.39041 15.4966C6.26352 15.4016 6.92046 16.2752 6.58693 17.0877C6.37956 17.5928 6.55323 18.1742 7.00372 18.4829L7.44657 18.7862C7.83771 19.0542 8.3629 19.0125 8.70685 18.6862C9.2763 18.1459 10.2176 18.4375 10.3821 19.205C10.4814 19.6687 10.8912 20 11.3653 20H11.9706C12.4767 20 12.914 19.6464 13.02 19.1515C13.1933 18.3427 14.178 18.0256 14.7905 18.5815C15.1652 18.9216 15.7265 18.9537 16.1375 18.6586L16.6707 18.2758C17.0317 18.0166 17.1626 17.5403 16.9848 17.133C16.6869 16.4508 17.2604 15.7087 17.9957 15.825C18.4346 15.8945 18.8623 15.6479 19.0222 15.2333L19.2012 14.7692C19.4166 14.2105 19.2124 13.5772 18.7113 13.2495C17.9225 12.7337 17.9506 11.5686 18.7635 11.0916C19.2799 10.7886 19.5144 10.1661 19.3264 9.59766L19.2248 9.29078C19.0533 8.77238 18.543 8.44424 18.0001 8.50335C17.127 8.59843 16.4701 7.72483 16.8036 6.91235C17.011 6.40719 16.8373 5.82576 16.3868 5.51714L15.944 5.21377C15.5528 4.94581 15.0276 4.98751 14.6837 5.31384C14.1142 5.85411 13.1729 5.56249 13.0085 4.79495ZM9.36299 8.75072C8.73037 9.20494 8.24376 9.83422 7.96357 10.5609C7.63049 11.4246 7.60746 12.3774 7.89826 13.2564C8.17318 14.0873 8.71333 14.8054 9.43538 15.3001C10.1008 15.7559 10.8887 16 11.6953 16C12.5319 16 13.3479 15.7373 14.0275 15.2493C14.6602 14.7951 15.1468 14.1658 15.427 13.4391C15.7601 12.5754 15.7831 11.6226 15.4923 10.7436C15.2174 9.91272 14.6772 9.19456 13.9552 8.69991C13.2898 8.24407 12.5019 8 11.6953 8C10.8586 8 10.0426 8.26275 9.36299 8.75072Z" fill=""/>
</svg>
