<svg width="24" height="24" viewBox="0 0 24 24" fill="none" xmlns="http://www.w3.org/2000/svg">
<path d="M12.4999 2L12.8534 1.64644C12.7597 1.55267 12.6325 1.5 12.4999 1.5C12.3673 1.5 12.2401 1.55268 12.1463 1.64645L12.4999 2ZM11.9999 15C11.9999 15.2761 12.2237 15.5 12.4999 15.5C12.776 15.5 12.9999 15.2761 12.9999 15H11.9999ZM15.1465 5.35356C15.3417 5.54882 15.6583 5.54881 15.8536 5.35355C16.0488 5.15828 16.0488 4.8417 15.8535 4.64644L15.1465 5.35356ZM9.14644 4.64645C8.95118 4.84172 8.95119 5.1583 9.14645 5.35356C9.34172 5.54882 9.6583 5.54881 9.85356 5.35355L9.14644 4.64645ZM19.5 9.875V19H20.5V9.875H19.5ZM18 20.5H7V21.5H18V20.5ZM5.5 19V10H4.5V19H5.5ZM7 8.5H10.625V7.5H7V8.5ZM7 20.5C6.17157 20.5 5.5 19.8284 5.5 19H4.5C4.5 20.3807 5.61929 21.5 7 21.5V20.5ZM19.5 19C19.5 19.8284 18.8284 20.5 18 20.5V21.5C19.3807 21.5 20.5 20.3807 20.5 19H19.5ZM20.5 9.875C20.5 8.56332 19.4367 7.5 18.125 7.5V8.5C18.8844 8.5 19.5 9.11561 19.5 9.875H20.5ZM5.5 10C5.5 9.17157 6.17157 8.5 7 8.5V7.5C5.61929 7.5 4.5 8.61929 4.5 10H5.5ZM11.9999 2V15H12.9999V2H11.9999ZM12.1463 2.35356L15.1465 5.35356L15.8535 4.64644L12.8534 1.64644L12.1463 2.35356ZM12.1463 1.64645L9.14644 4.64645L9.85356 5.35355L12.8534 2.35355L12.1463 1.64645ZM14.2365 8.5H18.125V7.5H14.2365V8.5Z" fill=""/>
</svg>
