<svg width="24" height="24" viewBox="0 0 24 24" fill="none" xmlns="http://www.w3.org/2000/svg">

<path fill-rule="evenodd" clip-rule="evenodd" d="M6.00696 2.68372C6.46222 1.94851 7.26596 1.5 8.13238 1.5H15.8676C16.734 1.5 17.5378 1.94851 17.993 2.68372L20.3908 5.68811C20.4615 5.77669 20.5 5.88666 20.5 6V19C20.5 20.3807 19.3807 21.5 18 21.5H6C4.61929 21.5 3.5 20.3807 3.5 19V6C3.5 5.88666 3.5385 5.77669 3.6092 5.68811L6.00696 2.68372ZM8.13238 2.5C7.60549 2.5 7.11723 2.77645 6.84614 3.22826C6.83472 3.24729 6.82204 3.26555 6.8082 3.2829L5.03876 5.5H18.9612L17.1918 3.2829C17.178 3.26555 17.1653 3.24729 17.1539 3.22826C16.8828 2.77645 16.3945 2.5 15.8676 2.5H8.13238ZM19.5 6.5H4.5V19C4.5 19.8284 5.17157 20.5 6 20.5H18C18.8284 20.5 19.5 19.8284 19.5 19V6.5ZM8 9.5C8.27615 9.5 8.5 9.72386 8.5 10C8.5 10.892 8.8405 11.7489 9.44952 12.3969C9.47428 12.4232 9.49949 12.4492 9.52513 12.4749C10.1815 13.1313 11.0717 13.5 12 13.5C12.9283 13.5 13.8185 13.1313 14.4749 12.4749C14.7002 12.2495 14.9616 11.8637 15.1663 11.4005C15.3697 10.9403 15.499 10.445 15.5 10.0052C15.5 10.0034 15.5 10.0017 15.5 10C15.5 9.72386 15.7239 9.5 16 9.5C16.2761 9.5 16.5 9.72386 16.5 10C16.5 10.6209 16.3228 11.2586 16.0807 11.806C15.8391 12.3521 15.5146 12.8493 15.182 13.182C14.3381 14.0259 13.1935 14.5 12 14.5C10.8065 14.5 9.66194 14.0259 8.81802 13.182C7.97422 12.3382 7.5 11.1959 7.5 10C7.5 9.72386 7.72386 9.5 8 9.5Z" />
</svg>
