<svg width="24" height="24" viewBox="0 0 24 24" fill="none" xmlns="http://www.w3.org/2000/svg">
<rect width="24" height="24" fill="white"/>
<path fill-rule="evenodd" clip-rule="evenodd" d="M17.5 19C17.2239 19 17 18.7761 17 18.5V11.9997V5.5C17 5.22386 17.2239 5 17.5 5C17.7761 5 18 5.22386 18 5.5V18.5C18 18.7761 17.7761 19 17.5 19ZM17 11.9997C16.9999 12.3364 16.8332 12.6736 16.5 12.866L7.5 18.0622C6.83333 18.4471 6 17.966 6 17.1962V6.80385C6 6.03405 6.83333 5.55292 7.5 5.93782L16.5 11.134C16.8332 11.3264 16.9999 11.663 17 11.9997Z" />
</svg>
