<svg width="24" height="24" viewBox="0 0 24 24" fill="none" xmlns="http://www.w3.org/2000/svg">

<path fill-rule="evenodd" clip-rule="evenodd" d="M11.8536 11.8536C11.6583 12.0488 11.3417 12.0488 11.1464 11.8536L9 9.70711V16.5C9 16.7761 8.77614 17 8.5 17C8.22386 17 8 16.7761 8 16.5V9.70711L5.85355 11.8536C5.65829 12.0488 5.34171 12.0488 5.14645 11.8536C4.95118 11.6583 4.95118 11.3417 5.14645 11.1464L8.14645 8.14645C8.34171 7.95118 8.65829 7.95118 8.85355 8.14645L11.8536 11.1464C12.0488 11.3417 12.0488 11.6583 11.8536 11.8536Z" />
<path fill-rule="evenodd" clip-rule="evenodd" d="M12.1464 13.1464C12.3417 12.9512 12.6583 12.9512 12.8536 13.1464L15 15.2929V8.5C15 8.22386 15.2239 8 15.5 8C15.7761 8 16 8.22386 16 8.5V15.2929L18.1464 13.1464C18.3417 12.9512 18.6583 12.9512 18.8536 13.1464C19.0488 13.3417 19.0488 13.6583 18.8536 13.8536L15.8536 16.8536C15.6583 17.0488 15.3417 17.0488 15.1464 16.8536L12.1464 13.8536C11.9512 13.6583 11.9512 13.3417 12.1464 13.1464Z" />
</svg>
