<svg width="24" height="24" viewBox="0 0 24 24" fill="none" xmlns="http://www.w3.org/2000/svg">
<rect width="24" height="24" fill="white"/>
<path d="M20.5304 4.21967C20.8232 4.51256 20.8232 4.98744 20.5304 5.28033L12.5304 13.2803C12.2375 13.5732 11.7626 13.5732 11.4697 13.2803C11.1768 12.9874 11.1768 12.5126 11.4697 12.2197L13.23 10.4593C12.8972 10.2806 12.5267 10.1751 12.1434 10.154C11.5043 10.1187 10.8748 10.3203 10.3751 10.7203C9.87551 11.1203 9.54097 11.6904 9.43554 12.3217C9.33011 12.953 9.46122 13.6009 9.80375 14.1415C10.1463 14.6822 10.6762 15.0774 11.292 15.2517C11.9078 15.426 12.5663 15.3671 13.1413 15.0861C13.7163 14.8052 14.1676 14.322 14.4086 13.7292C14.5609 13.3545 14.6225 12.9526 14.5927 12.5555C14.5638 12.17 14.7426 11.7671 15.1066 11.6367C15.4705 11.5063 15.8779 11.6957 15.943 12.0768C16.0676 12.8068 15.9878 13.5619 15.7055 14.2564C15.3347 15.1685 14.6405 15.9118 13.7558 16.344C12.8711 16.7762 11.8581 16.867 10.9107 16.5988C9.96333 16.3307 9.14811 15.7226 8.62114 14.8908C8.09417 14.0591 7.89247 13.0622 8.05467 12.0911C8.21686 11.1199 8.73155 10.2427 9.5002 9.62736C10.2688 9.01202 11.2374 8.7018 12.2206 8.75608C12.9507 8.7964 13.6508 9.03569 14.248 9.4414L15.965 7.72435C15.9518 7.71512 15.9388 7.70553 15.926 7.69557C14.9034 6.9013 13.6582 6.43181 12.3529 6.35973C10.7799 6.27288 9.23013 6.76924 8.0003 7.75378C6.77046 8.73832 5.94696 10.1419 5.68745 11.6957C5.42794 13.2496 5.75066 14.8446 6.59381 16.1753C7.43697 17.5061 8.74132 18.4791 10.2572 18.9081C11.773 19.3371 13.3938 19.192 14.8093 18.5005C16.2248 17.809 17.3355 16.6197 17.9288 15.1603C18.4212 13.9492 18.5285 12.6228 18.247 11.3589C18.151 10.9277 18.362 10.4701 18.7779 10.321C19.1939 10.172 19.6561 10.3878 19.7629 10.8165C20.1708 12.4542 20.0518 14.1867 19.411 15.7628C18.6694 17.5871 17.281 19.0737 15.5116 19.9381C13.7423 20.8025 11.7162 20.9839 9.82144 20.4476C7.92664 19.9114 6.2962 18.6951 5.24226 17.0317C4.18831 15.3682 3.78492 13.3745 4.10931 11.4322C4.4337 9.48985 5.46308 7.7354 7.00037 6.50472C8.53766 5.27404 10.4749 4.6536 12.4411 4.76217C14.1399 4.85597 15.7573 5.48828 17.0638 6.55662C17.0766 6.56702 17.0888 6.57775 17.1006 6.58877L19.4697 4.21967C19.7626 3.92678 20.2375 3.92678 20.5304 4.21967Z" fill="black"/>
</svg>
