<svg width="24" height="24" viewBox="0 0 24 24" fill="none" xmlns="http://www.w3.org/2000/svg">

<path d="M9.5 3.5C9.5 3.22386 9.72386 3 10 3H14C14.2761 3 14.5 3.22386 14.5 3.5C14.5 3.77614 14.2761 4 14 4H10C9.72386 4 9.5 3.77614 9.5 3.5Z" fill=""/>
<path d="M16.3536 9.85355C16.5488 9.65829 16.5488 9.34171 16.3536 9.14645C16.1583 8.95118 15.8417 8.95118 15.6464 9.14645L11.6464 13.1464C11.4512 13.3417 11.4512 13.6583 11.6464 13.8536C11.8417 14.0488 12.1583 14.0488 12.3536 13.8536L16.3536 9.85355Z" fill="" />
<path fill-rule="evenodd" clip-rule="evenodd" d="M12 21.5C16.4183 21.5 20 17.9183 20 13.5C20 9.08172 16.4183 5.5 12 5.5C7.58172 5.5 4 9.08172 4 13.5C4 17.9183 7.58172 21.5 12 21.5ZM12 20.5C15.866 20.5 19 17.366 19 13.5C19 9.63401 15.866 6.5 12 6.5C8.13401 6.5 5 9.63401 5 13.5C5 17.366 8.13401 20.5 12 20.5Z" fill="" />
</svg>
