<svg width="24" height="24" viewBox="0 0 24 24" fill="none" xmlns="http://www.w3.org/2000/svg">
<rect width="24" height="24" fill="white"/>
<path fill-rule="evenodd" clip-rule="evenodd" d="M11.7416 3.68809L19.0519 16.3498C19.0563 16.3479 19.0607 16.346 19.0652 16.3441C19.3092 16.2379 19.6233 16.0903 19.9182 15.92C20.2224 15.7444 20.4659 15.5672 20.6016 15.4121C20.6459 15.3613 20.6675 15.3254 20.6775 15.3049L13.6915 3.20474C13.6056 3.05592 13.499 3.00287 13.3262 3.00033C13.1183 2.99727 12.8438 3.07596 12.5368 3.21995C12.2389 3.35962 11.9548 3.53948 11.7416 3.68809C11.7417 3.68801 11.7415 3.68816 11.7416 3.68809ZM18.8369 16.9774L19.0105 17.4463L18.6148 17.5928L14.9038 11.1651L10.6639 13.613L14.4139 20.1083L13.9809 20.3583L13.7309 19.9253C13.9809 20.3583 13.9809 20.3583 13.9809 20.3583L13.9715 20.3637L13.9461 20.3782C13.9241 20.3908 13.892 20.409 13.8513 20.432C13.7699 20.4778 13.6537 20.5426 13.5137 20.6189C13.2342 20.7711 12.8566 20.9707 12.4688 21.1575C12.0859 21.342 11.6739 21.5233 11.3314 21.6304C11.1644 21.6826 10.9815 21.7277 10.8128 21.7347C10.6878 21.7398 10.3369 21.7338 10.1522 21.414L9.88895 20.9579C9.77917 20.9965 9.65272 21.0345 9.51406 21.0651C9.04093 21.1695 8.36258 21.1997 7.7385 20.7876C7.42832 20.5828 7.08387 20.1883 6.76687 19.7791C6.68019 19.6672 6.59246 19.5501 6.50456 19.4295C6.46364 19.4388 6.41778 19.4488 6.36775 19.4591C6.15961 19.5017 5.87151 19.5499 5.56145 19.5685C5.25618 19.5868 4.90149 19.5784 4.57231 19.4902C4.24174 19.4016 3.88464 19.217 3.66995 18.8451L2.16995 16.247C1.95526 15.8752 1.97393 15.4736 2.06251 15.143C2.15071 14.8139 2.32073 14.5025 2.48923 14.2473C2.66038 13.988 2.8462 13.7627 2.98715 13.6037C3.00177 13.5872 3.01597 13.5714 3.02967 13.5562C2.78611 13.0745 2.5562 12.5961 2.37816 12.1798C2.25888 11.9009 2.15786 11.6384 2.09217 11.4156C2.05939 11.3044 2.03218 11.1924 2.01746 11.0867C2.00412 10.991 1.99379 10.8537 2.03106 10.7146C2.10357 10.4441 2.26059 10.2089 2.41777 10.0227C2.57865 9.83214 2.76543 9.66294 2.93553 9.52524C3.02049 9.45647 3.10354 9.39375 3.18035 9.33832L3.15225 9.28964C2.84632 8.75986 2.96219 8.23532 3.22082 7.82737C3.46486 7.44245 3.85455 7.11967 4.22021 6.87049C4.59455 6.61539 4.98839 6.4078 5.2841 6.26535C5.43302 6.19361 5.55949 6.13723 5.64946 6.09849C5.69449 6.0791 5.73051 6.06408 5.75577 6.0537L5.78542 6.04164L5.79382 6.03828L5.79634 6.03728L5.79748 6.03683C5.79761 6.03678 5.79772 6.03673 5.9809 6.50197L5.79748 6.03683L6.19853 5.87891L10.1639 12.747L14.4038 10.2991L10.4429 3.43859L10.7676 3.16918L11.0869 3.55398C10.7676 3.16918 10.7675 3.16927 10.7676 3.16918L10.7688 3.16821L10.7708 3.16655L10.7773 3.16122L10.7999 3.14293C10.8191 3.12749 10.8466 3.10576 10.8813 3.079C10.9506 3.02554 11.0494 2.95161 11.1701 2.86749C11.4093 2.70078 11.7443 2.48707 12.1122 2.31456C12.4708 2.14638 12.9088 1.99408 13.3409 2.00044C13.8079 2.00731 14.2685 2.2041 14.5575 2.70474L14.8289 3.1747C14.9621 3.12205 15.1199 3.0676 15.2928 3.02318C15.7885 2.89587 16.5419 2.81846 17.1596 3.28907C17.4402 3.50283 17.7629 3.90014 18.0665 4.31593C18.1394 4.41576 18.2132 4.51964 18.2874 4.62628C18.3433 4.61284 18.4132 4.5969 18.4941 4.58035C18.7022 4.53776 18.9903 4.48953 19.3004 4.47092C19.6056 4.4526 19.9603 4.46105 20.2895 4.54926C20.6201 4.63784 20.9772 4.82245 21.1919 5.1943L22.6919 7.79238C22.9065 8.16423 22.8879 8.56579 22.7993 8.89636C22.7111 9.22554 22.5411 9.53694 22.3726 9.79215C22.2014 10.0514 22.0156 10.2768 21.8747 10.4357C21.833 10.4827 21.7947 10.5244 21.7614 10.56C21.8272 10.6994 21.8899 10.8369 21.9479 10.9709C22.1533 11.4443 22.333 11.94 22.3557 12.317C22.4017 13.0819 21.9797 13.6798 21.6251 14.0463C21.5078 14.1676 21.3903 14.2715 21.2849 14.3568L21.5575 14.8291C21.8452 15.3273 21.5955 15.7944 21.3545 16.0701C21.1081 16.3521 20.7485 16.5954 20.4182 16.786C20.0787 16.9821 19.7272 17.1466 19.4641 17.2611C19.3317 17.3187 19.2198 17.3644 19.1404 17.396C19.1006 17.4118 19.069 17.424 19.0468 17.4325L19.021 17.4423L19.0137 17.4451L19.0116 17.4458C19.0115 17.4459 19.0105 17.4463 18.8369 16.9774ZM20.7765 13.4763C20.8194 13.4376 20.8631 13.3957 20.9064 13.351C21.1846 13.0634 21.3786 12.7282 21.3575 12.3771C21.3466 12.1961 21.2382 11.8476 21.0305 11.3688C20.832 10.9112 20.5703 10.3949 20.3065 9.90536C20.0434 9.41718 19.7818 8.96242 19.5857 8.62929C19.4878 8.46289 19.4064 8.32725 19.3497 8.23344C19.3213 8.18654 19.2992 8.15012 19.2841 8.12557L19.2671 8.09781L19.2629 8.09094L19.2619 8.08932C19.2585 8.08382 19.255 8.07787 19.2518 8.07225L19.2506 8.07009L19.2466 8.06298L19.2304 8.03451L19.1674 7.92458C19.1126 7.82928 19.0332 7.69207 18.9351 7.52525C18.7387 7.19134 18.4685 6.74008 18.1721 6.26928C17.875 5.79741 17.555 5.31128 17.2588 4.90555C16.9508 4.4836 16.7042 4.19924 16.5536 4.08451C16.3089 3.89814 15.9464 3.88777 15.5416 3.99174C15.4698 4.01017 15.4009 4.03122 15.3361 4.05329L20.7765 13.4763ZM21.2755 9.59674C21.3617 9.49082 21.4531 9.36991 21.5381 9.24116C21.6776 9.02986 21.7843 8.82063 21.8334 8.63755C21.8821 8.45586 21.8611 8.35354 21.8258 8.29238L20.3258 5.6943C20.2905 5.63314 20.2124 5.56387 20.0307 5.51518C19.8476 5.46613 19.613 5.45395 19.3603 5.46912C19.192 5.47922 19.0281 5.50061 18.8841 5.52476C18.9294 5.59569 18.9742 5.66637 19.0183 5.73648C19.3218 6.21842 19.5975 6.67883 19.7971 7.01841C19.897 7.18834 19.9781 7.32833 20.0343 7.42604C20.0624 7.4749 20.0843 7.51321 20.0992 7.53941L20.1163 7.56946L20.1176 7.57182L20.1191 7.57425L20.1373 7.60392C20.1531 7.62979 20.1762 7.66761 20.2054 7.71599C20.2639 7.81273 20.3473 7.95181 20.4475 8.12205C20.6477 8.46219 20.9159 8.92838 21.1868 9.4309C21.2163 9.48571 21.2459 9.54103 21.2755 9.59674ZM9.5479 13.68L5.77218 7.14043C5.75457 7.14877 5.73652 7.15738 5.71809 7.16626C5.44741 7.29666 5.10169 7.47992 4.78335 7.69685C4.45632 7.91971 4.20022 8.15014 4.06539 8.36282C3.94516 8.55245 3.9491 8.66985 4.01823 8.78956L7.51775 14.8509L7.08524 15.1018L6.65219 15.3517L3.68348 10.2097C3.64469 10.239 3.60486 10.27 3.56472 10.3025C3.42397 10.4164 3.28845 10.5416 3.18187 10.6678C3.08685 10.7803 3.03242 10.8732 3.00702 10.9421C3.00727 10.9442 3.00756 10.9464 3.00789 10.9488C3.01334 10.9879 3.02644 11.0483 3.05134 11.1328C3.101 11.3012 3.1848 11.5228 3.29759 11.7865C3.52219 12.3117 3.84191 12.9579 4.1723 13.5923C4.50168 14.2248 4.83725 14.8371 5.09083 15.2918C5.21752 15.519 5.32352 15.7065 5.39777 15.837C5.43489 15.9023 5.46405 15.9533 5.48389 15.9879L5.50645 16.0272L5.51356 16.0395L5.51923 16.0493L5.53562 16.0775C5.55013 16.1024 5.57168 16.1392 5.59952 16.1865C5.65521 16.281 5.73602 16.4171 5.83597 16.5825C6.03607 16.9136 6.31198 17.3605 6.6161 17.8256C6.92101 18.2919 7.25028 18.7703 7.55739 19.1667C7.87781 19.5803 8.13323 19.8499 8.28953 19.9531C8.59842 20.157 8.96254 20.1627 9.29863 20.0886C9.32508 20.0827 9.35098 20.0765 9.37623 20.0699L6.65219 15.3517L7.08524 15.1018L7.51775 14.8509L10.9021 20.7128C10.9387 20.7038 10.9822 20.6918 11.0331 20.6759C11.3038 20.5913 11.6626 20.4359 12.0348 20.2566C12.4023 20.0796 12.7641 19.8884 13.0354 19.7407C13.0383 19.7391 13.0413 19.7375 13.0442 19.7359L9.5479 13.68ZM10.7531 20.7352C10.7535 20.7349 10.7585 20.7348 10.7671 20.7357C10.757 20.7359 10.7528 20.7355 10.7531 20.7352ZM5.08096 16.2902C4.64795 16.5402 4.64792 16.5402 4.64789 16.5401L4.6397 16.5259L4.61635 16.4853C4.59599 16.4497 4.56626 16.3977 4.52854 16.3314C4.4531 16.1988 4.3457 16.0088 4.21744 15.7788C4.0231 15.4303 3.78039 14.989 3.52826 14.5154C3.45988 14.6027 3.38988 14.6981 3.32374 14.7983C3.18423 15.0096 3.07749 15.2188 3.02843 15.4019C2.97975 15.5835 3.00067 15.6859 3.03598 15.747L4.53598 18.3451C4.57129 18.4063 4.64945 18.4755 4.83113 18.5242C5.01421 18.5733 5.24878 18.5855 5.50153 18.5703C5.63364 18.5624 5.7631 18.5475 5.88234 18.5298C5.84758 18.4772 5.81316 18.4249 5.77915 18.3729C5.46663 17.895 5.1842 17.4374 4.98013 17.0997C4.878 16.9307 4.79526 16.7914 4.73793 16.6941C4.70925 16.6454 4.68692 16.6072 4.67168 16.5811L4.65422 16.5511L4.64844 16.5411C4.64841 16.541 4.64795 16.5402 5.08096 16.2902Z" />
</svg>
